<?xml version="1.0" standalone="no"?>
<!DOCTYPE svg PUBLIC "-//W3C//DTD SVG 20010904//EN"
 "http://www.w3.org/TR/2001/REC-SVG-20010904/DTD/svg10.dtd">
<svg version="1.0" xmlns="http://www.w3.org/2000/svg"
 width="1024.000000pt" height="1024.000000pt" viewBox="0 0 1024.000000 1024.000000"
 preserveAspectRatio="xMidYMid meet">

<g transform="translate(0.000000,1024.000000) scale(0.100000,-0.100000)"
fill="#f4e27e" stroke="none">
<path d="M4900 5280 c-239 -38 -400 -224 -400 -465 0 -315 290 -535 608 -460
216 51 362 234 362 453 -1 265 -181 454 -455 475 -33 3 -85 1 -115 -3z m222
-157 c212 -95 267 -374 109 -546 -91 -99 -259 -132 -382 -75 -72 33 -134 94
-168 167 -22 47 -26 70 -26 146 0 76 4 98 26 145 41 86 115 150 209 181 45 15
181 4 232 -18z"/>
<path d="M2893 5266 c-218 -50 -363 -230 -363 -451 0 -224 148 -407 372 -460
127 -30 266 -8 399 61 l69 36 0 184 0 184 -70 0 -69 0 -3 -142 -3 -142 -50
-25 c-44 -23 -62 -26 -150 -26 -81 0 -109 4 -147 22 -66 30 -133 96 -165 162
-24 49 -28 68 -28 146 0 106 22 163 89 230 62 62 125 88 227 93 101 5 162 -11
237 -63 l49 -33 42 50 c42 48 43 49 25 70 -81 88 -306 139 -461 104z"/>
<path d="M7227 5269 c-82 -19 -152 -73 -190 -144 -31 -60 -30 -165 3 -225 42
-76 78 -93 353 -175 108 -32 151 -66 151 -118 0 -89 -63 -131 -194 -131 -102
0 -165 19 -251 76 -33 22 -61 39 -63 37 -2 -2 -16 -28 -30 -57 -25 -50 -26
-55 -11 -72 28 -31 131 -80 211 -100 176 -45 352 -9 436 90 65 76 77 181 30
271 -38 73 -96 107 -266 154 -151 42 -205 68 -224 109 -30 61 14 134 93 155
86 23 192 6 296 -47 l57 -29 25 61 c29 70 28 72 -53 108 -101 44 -271 61 -373
37z"/>
<path d="M3607 5263 c-4 -3 -7 -210 -7 -460 l0 -453 81 0 81 0 -3 148 -3 147
128 0 128 0 95 -147 95 -148 85 0 c67 0 82 3 76 13 -4 7 -52 77 -105 154 -54
78 -98 145 -98 150 1 4 24 22 53 38 56 33 109 101 127 163 17 63 12 172 -11
222 -39 87 -118 146 -227 169 -57 12 -484 16 -495 4z m514 -155 c55 -33 83
-83 82 -149 -1 -72 -31 -118 -100 -153 -26 -13 -64 -16 -193 -16 l-160 0 0
176 0 176 163 -4 c155 -3 164 -4 208 -30z"/>
<path d="M5576 5193 c13 -43 80 -249 147 -458 l124 -380 80 -3 c75 -3 80 -1
89 20 6 13 55 168 109 346 55 177 102 322 105 322 3 0 32 -89 65 -197 32 -109
80 -263 105 -343 l46 -145 81 -3 82 -3 116 358 c112 344 171 524 182 551 3 9
-15 12 -74 12 l-79 0 -53 -172 c-29 -95 -80 -262 -113 -372 l-62 -199 -18 54
c-10 30 -60 189 -110 354 -50 165 -95 308 -100 318 -7 13 -22 17 -67 17 -55 0
-59 -2 -69 -27 -12 -31 -168 -524 -203 -643 -12 -41 -25 -68 -27 -60 -3 8 -53
175 -112 370 l-107 355 -81 3 -81 3 25 -78z"/>
</g>
</svg>
